<?xml version="1.0" encoding="UTF-8" standalone="no"?>
<svg
   xmlns:dc="http://purl.org/dc/elements/1.1/"
   xmlns:cc="http://creativecommons.org/ns#"
   xmlns:rdf="http://www.w3.org/1999/02/22-rdf-syntax-ns#"
   xmlns:svg="http://www.w3.org/2000/svg"
   xmlns="http://www.w3.org/2000/svg"
   xmlns:sodipodi="http://sodipodi.sourceforge.net/DTD/sodipodi-0.dtd"
   xmlns:inkscape="http://www.inkscape.org/namespaces/inkscape"
   version="1.1"
   id="svg2"
   xml:space="preserve"
   width="201.54668"
   height="218.58667"
   viewBox="0 0 201.54668 218.58667"
   sodipodi:docname="TKP pot.eps"><metadata
     id="metadata8"><rdf:RDF><cc:Work
         rdf:about=""><dc:format>image/svg+xml</dc:format><dc:type
           rdf:resource="http://purl.org/dc/dcmitype/StillImage" /></cc:Work></rdf:RDF></metadata><defs
     id="defs6" /><sodipodi:namedview
     pagecolor="#ffffff"
     bordercolor="#666666"
     borderopacity="1"
     objecttolerance="10"
     gridtolerance="10"
     guidetolerance="10"
     inkscape:pageopacity="0"
     inkscape:pageshadow="2"
     inkscape:window-width="640"
     inkscape:window-height="480"
     id="namedview4" /><g
     id="g10"
     inkscape:groupmode="layer"
     inkscape:label="ink_ext_XXXXXX"
     transform="matrix(1.3333333,0,0,-1.3333333,0,218.58667)"><g
       id="g12"
       transform="scale(0.1)"><path
         d="m 1264.07,727.078 9.99,-469.527 c 0,0 -19.98,-59.942 -74.91,-89.91 C 1144.19,137.66 1014.32,77.7383 779.57,82.7188 544.793,87.7109 483.602,124.191 439.891,152.66 c -48.985,31.899 -64.539,41.129 -79.52,61.129 l 16.383,594.844 c 0,0 25.672,-38.586 131.137,-67.461 131.496,-36.008 238.757,-47.785 363.64,-47.785 124.875,0 392.539,33.691 392.539,33.691"
         style="fill:#069cab;fill-opacity:1;fill-rule:nonzero;stroke:none"
         id="path14" /><path
         d="m 124.453,1006.82 c -43.4725,23.34 -77.8124,70.04 -77.6366,120.39 0.1484,44.52 42.6563,81.84 75.4536,51.17 3.062,-3.76 6.089,-7.58 9.472,-10.99 7.344,-7.39 55.801,-19.46 44.047,-2.08 -3.965,5.86 -8.789,11.4 -13.992,16.71 -22.793,31.32 -30.399,70.33 4.699,98.76 49.512,40.11 77.723,-63.76 83.453,-91.96 14.176,-69.8 11.446,-147.94 -2.019,-219.218 -44.032,5.222 -87.375,17.832 -123.477,37.218 z m 235.606,-33.023 c -19.739,-4.363 -40.68,-6.551 -62.032,-6.918 7.508,46.631 9.539,94.651 7.188,141.391 -2.965,58.61 -8.996,124.57 -52.274,168.33 -28.222,28.54 -85.656,48.9 -123.269,26.96 -36.0665,-21.04 -40.8048,-54.73 -29.7111,-86.43 -19.0195,4 -38.7461,2.46 -56.7578,-7.49 -67.9297,-37.54 -45.12498,-119.19 -4.0781,-168.25 45.4727,-54.367 124.77,-83.956 204.742,-94.077 -0.289,-1.27 -0.418,-2.645 -0.715,-3.907 -3.336,-14.254 44.707,-26.984 47.836,-13.593 1.051,4.496 1.66,9.136 2.602,13.671 37.605,-1.031 73.851,2.02 105.023,8.911 16.645,3.683 -25.8,24.23 -38.554,21.402"
         style="fill:#0e0d11;fill-opacity:1;fill-rule:nonzero;stroke:none"
         id="path16" /><path
         d="m 1369.71,508.512 c -3.25,0.679 -6.81,1.187 -10.4,1.609 l 3.96,119.84 c 0.93,-0.289 1.87,-0.602 2.66,-0.77 34.44,-7.75 69.18,-7.191 71.86,-49.679 2.57,-40.614 -25.37,-79.934 -68.08,-71 z M 279.148,542.961 c -48.578,56.617 -19.957,142.477 56.715,134.234 l -5.258,-165.386 c -18.906,4.32 -36.695,13.953 -51.457,31.152 z m 1211.902,82.437 c -21.41,20.157 -60.43,22.891 -87.61,29.004 -11.71,2.629 -26.73,3.75 -39.36,0.137 l 2.85,86.633 -52.9,-13.223 -14.94,-452.34 c -1.57,-22.531 -11.82,-92.597 -37.33,-118.14 C 1240.01,135.73 1184.28,108 1165.07,99.3281 1118.33,79.3086 1047.83,49 887.559,52.7617 726.621,56.5 661,75.4219 577.918,99.3594 564.004,103.379 549.621,107.531 534.281,111.762 451.742,134.531 391.32,204.199 374.004,226.059 l 8.187,257.703 c 44.032,8.058 86.27,25.129 114.754,44.117 13.157,8.769 -6.914,16.41 -13.566,17.402 -15.289,2.278 -32.57,0.078 -45.582,-8.601 -16.817,-11.211 -35.598,-19.43 -54.684,-23.93 l 10.813,304.875 -48.688,36.078 -8.472,-148.07 c -95.368,0.305 -188.504,-57.715 -127.95,-166.363 24.313,-43.598 70.618,-59.872 120.747,-60.321 l -8.559,-269.269 5.047,-7.168 c 3.117,-4.442 77.914,-109.2034 194.285,-141.3128 15.137,-4.1797 29.32,-8.2695 43.051,-12.2304 86.722,-25 155.226,-44.73833 322.949,-48.648487 C 895.625,0.109375 904.609,0 913.379,0 1066.4,0 1140.52,31.7617 1186.16,51.3203 c 8.12,3.6485 80.24,36.6406 112.69,69.0707 43.86,43.879 51.8,140.668 52.61,152.539 l 6.82,206.242 c 59.01,-6.731 131.56,3.637 149.17,68.18 7.8,28.589 5.8,57.16 -16.4,78.046"
         style="fill:#0e0d11;fill-opacity:1;fill-rule:nonzero;stroke:none"
         id="path18" /><path
         d="m 425.379,1263.95 c -12.879,19.14 -14.371,47.25 -2.383,67.01 10.953,18.06 24.406,7.26 32.379,-6.09 1.078,-7.69 3.379,-15.42 6.695,-22.72 5.125,-11.3 40.528,-3.33 37.266,3.86 -0.5,1.1 -1.047,2.94 -1.582,4.59 0.789,0.92 1.121,1.92 0.812,2.99 -0.722,2.51 -2.289,4.41 -3.308,6.71 -4.727,22.62 -5.656,58.68 23.453,46.69 24.523,-10.11 34.402,-36.31 34.777,-60.56 0.598,-39.34 -21.125,-85.32 -48.062,-116.48 -31.297,19.84 -60.438,44.86 -80.047,74 z m 125.508,-98.78 c -7.176,3.13 -14.36,7.21 -21.551,10.99 45.652,45.07 90.199,138.14 36.672,190.75 -21.121,20.77 -54.695,22.4 -81.028,12.45 -14.128,-5.35 -22.476,-14.85 -26.746,-26.08 -29.976,9.8 -66.644,-0.06 -77.976,-34.1 -25.016,-75.13 90.254,-142.05 144.644,-165.79 8.817,-3.85 44.133,3.86 25.985,11.78"
         style="fill:#0e0d11;fill-opacity:1;fill-rule:nonzero;stroke:none"
         id="path20" /><path
         d="m 328.441,1356.27 c -0.539,0.15 -0.699,0.32 -1.293,0.46 -54.539,12.81 -129.835,60.72 -159.679,107.57 -16.711,26.24 -15.926,54.6 1.886,79.64 40.879,57.45 74.993,-40.39 73.071,-70 -0.801,-12.18 44.082,-13.1 44.953,0.3 1.187,18.29 -2.219,36.03 -9.375,51.74 -0.5,22.52 3.75,44.7 13.797,65.71 29.929,62.62 66.226,-26.72 70.387,-57.56 7.656,-56.81 -7.383,-123.36 -33.747,-177.86 z m 41.368,248.38 c -22.368,19.81 -65.782,47.96 -96.653,27.88 -21.109,-13.72 -31.875,-36.94 -36.121,-61.96 -7.89,4.46 -16.324,8.21 -25.703,10.38 -40.129,9.28 -86.332,-15.27 -97.871,-55.77 -24.6876,-86.62 122.105,-167.93 191.09,-184.13 4.172,-0.98 10.703,-0.35 16.879,1.04 -4.16,-7.68 -8.52,-15.09 -13.106,-22.08 -5.726,-8.74 34.418,-27.15 42.379,-15.03 46.176,70.39 95.531,231.97 19.106,299.67"
         style="fill:#0e0d11;fill-opacity:1;fill-rule:nonzero;stroke:none"
         id="path22" /><path
         d="m 124.453,1006.82 c -43.4725,23.34 -77.8124,70.04 -77.6366,120.39 0.1484,44.52 42.6563,81.84 75.4536,51.17 3.062,-3.76 6.089,-7.58 9.472,-10.99 7.344,-7.39 55.801,-19.46 44.047,-2.08 -3.965,5.86 -8.789,11.4 -13.992,16.71 -22.793,31.32 -30.399,70.33 4.699,98.76 49.512,40.11 77.723,-63.76 83.453,-91.96 14.176,-69.8 11.446,-147.94 -2.019,-219.218 -44.032,5.222 -87.375,17.832 -123.477,37.218"
         style="fill:#ed641b;fill-opacity:1;fill-rule:nonzero;stroke:none"
         id="path24" /><path
         d="m 425.379,1263.95 c -12.879,19.14 -14.371,47.25 -2.383,67.01 10.953,18.06 24.406,7.26 32.379,-6.09 1.078,-7.69 3.379,-15.42 6.695,-22.72 5.125,-11.3 40.528,-3.33 37.266,3.86 -0.5,1.1 -1.047,2.94 -1.582,4.59 0.789,0.92 1.121,1.92 0.812,2.99 -0.722,2.51 -2.289,4.41 -3.308,6.71 -4.727,22.62 -5.656,58.68 23.453,46.69 24.523,-10.11 34.402,-36.31 34.777,-60.56 0.598,-39.34 -21.125,-85.32 -48.062,-116.48 -31.297,19.84 -60.438,44.86 -80.047,74"
         style="fill:#ed641b;fill-opacity:1;fill-rule:nonzero;stroke:none"
         id="path26" /><path
         d="m 328.441,1356.27 c -0.539,0.15 -0.699,0.32 -1.293,0.46 -54.539,12.81 -129.835,60.72 -159.679,107.57 -16.711,26.24 -15.926,54.6 1.886,79.64 40.879,57.45 74.993,-40.39 73.071,-70 -0.801,-12.18 44.082,-13.1 44.953,0.3 1.187,18.29 -2.219,36.03 -9.375,51.74 -0.5,22.52 3.75,44.7 13.797,65.71 29.929,62.62 66.226,-26.72 70.387,-57.56 7.656,-56.81 -7.383,-123.36 -33.747,-177.86"
         style="fill:#ed641b;fill-opacity:1;fill-rule:nonzero;stroke:none"
         id="path28" /><path
         d="m 841.609,981.078 c -279.687,0 -451.425,-74.183 -451.425,-127.375 0,-53.176 171.738,-127.375 451.425,-127.375 279.681,0 451.421,74.199 451.421,127.375 0,53.192 -171.74,127.375 -451.421,127.375 z m 0,-299.703 c -240.629,0 -496.371,60.402 -496.371,172.328 0,111.93 255.742,172.317 496.371,172.317 240.631,0 496.371,-60.387 496.371,-172.317 0,-111.926 -255.74,-172.328 -496.371,-172.328"
         style="fill:#0e0d11;fill-opacity:1;fill-rule:nonzero;stroke:none"
         id="path30" /><path
         d="m 765.281,1130.2 c -183.961,0 -310.082,-51.07 -321.426,-98.4 -2.488,-10.4 0.606,-22.55 9.211,-36.144 48.024,-75.808 233.879,-160.609 451.973,-206.222 101.411,-21.211 201.481,-32.422 289.371,-32.422 154.39,0 231.8,34.629 240.03,68.953 3.16,13.183 -1.81,30.633 -14.36,50.461 -50.71,80.019 -216.52,184.974 -435.334,230.754 -73.039,15.27 -146.887,23.02 -219.465,23.02 z M 1194.41,712.059 c -90.93,0 -194.19,11.535 -298.582,33.371 -232.68,48.672 -425.875,139.558 -480.738,226.172 -15.352,24.242 -20.383,48.018 -14.949,70.678 18.75,78.23 168.906,132.87 365.14,132.87 75.664,0 152.61,-8.06 228.672,-23.98 241.787,-50.56 410.057,-165.404 464.097,-250.69 19.49,-30.757 26.25,-59.359 20.1,-85.003 -21.59,-89.989 -187.04,-103.418 -283.74,-103.418"
         style="fill:#0e0d11;fill-opacity:1;fill-rule:nonzero;stroke:none"
         id="path32" /><path
         d="m 1399.77,805.867 c -20.65,-77.293 -236.7,-86.648 -482.543,-20.937 -245.868,65.738 -428.399,181.656 -407.747,258.95 20.668,77.3 236.7,86.66 482.559,20.93 C 1237.9,999.086 1420.44,883.164 1399.77,805.867"
         style="fill:#069cab;fill-opacity:1;fill-rule:nonzero;stroke:none"
         id="path34" /><path
         d="m 1030.35,1185.03 c 86.18,-30.73 132.4,-160.1 71.82,-233.135 -51.28,-61.829 -144.006,-16.493 -170.443,45.023 -12.235,28.482 -3.926,69.372 20.871,88.222 29.832,22.7 37.84,-58.96 36.121,-71.13 -1.992,-13.97 50.181,-18.596 52.401,-2.97 10.88,76.69 -76.159,130.61 -139.753,82.25 -36.699,-27.92 -30.566,-83.74 -10.586,-119.044 24.246,-42.84 77.957,-64.051 123.939,-71.074 78.92,-12.051 155.85,26.691 166.39,109.788 10.52,83.05 -47.63,161.71 -123.3,188.68 -15.25,5.45 -59.521,-5.17 -27.46,-16.61 v 0"
         style="fill:#0e0d11;fill-opacity:1;fill-rule:nonzero;stroke:none"
         id="path36" /></g></g></svg>
