<?xml version="1.0" standalone="no"?>
<!DOCTYPE svg PUBLIC "-//W3C//DTD SVG 20010904//EN"
 "http://www.w3.org/TR/2001/REC-SVG-20010904/DTD/svg10.dtd">
<svg version="1.0" xmlns="http://www.w3.org/2000/svg"
 width="876.000000pt" height="876.000000pt" viewBox="0 0 876.000000 876.000000"
 preserveAspectRatio="xMidYMid meet">
<metadata>
Created by potrace 1.14, written by Peter Selinger 2001-2017
</metadata>
<g transform="translate(0.000000,876.000000) scale(0.100000,-0.100000)"
fill="#000000" stroke="none">
<path d="M1833 8734 c-26 -13 -57 -32 -68 -42 -31 -26 -105 -133 -105 -151 0
-9 -8 -28 -17 -41 -10 -14 -16 -26 -14 -28 5 -4 -9 -72 -16 -72 -4 0 -35 12
-71 26 -212 85 -468 -17 -566 -226 -27 -57 -31 -76 -31 -150 1 -86 34 -220 56
-220 5 0 9 -6 9 -14 0 -37 141 -196 255 -288 221 -177 594 -359 741 -361 30
-1 54 -4 54 -8 0 -3 -11 -22 -24 -42 -47 -69 -48 -74 -25 -101 40 -47 164 -79
200 -53 9 7 33 43 54 81 57 105 65 120 65 133 0 6 3 13 8 15 10 4 105 244 110
278 0 3 3 12 6 20 5 16 28 98 31 115 27 129 26 123 42 235 7 53 7 233 1 305
-18 177 -106 351 -228 449 -25 19 -52 41 -61 48 -17 14 -30 22 -99 59 -71 38
-120 52 -192 55 -54 2 -75 -2 -115 -22z"/>
<path d="M3087 7404 c-1 -1 -18 -3 -37 -5 -19 -2 -39 -5 -45 -8 -5 -3 -18 -7
-28 -8 -57 -9 -177 -105 -177 -141 0 -10 -5 -12 -17 -6 -33 15 -168 13 -214
-2 -154 -53 -226 -190 -199 -379 6 -38 71 -169 107 -215 37 -46 171 -180 181
-180 4 0 18 -10 32 -23 14 -13 60 -47 102 -75 201 -135 413 -230 444 -199 4 4
18 7 30 7 26 0 59 29 47 41 -4 4 -36 22 -70 39 -35 17 -63 32 -63 34 0 2 10
14 23 28 154 169 261 379 293 573 9 58 5 156 -10 225 -10 44 -57 129 -94 171
-35 39 -102 89 -126 93 -6 1 -22 6 -35 10 -13 5 -40 10 -60 11 -20 2 -36 4
-36 5 0 3 -45 7 -48 4z"/>
<path d="M1151 7004 c-207 -43 -330 -230 -285 -434 7 -30 10 -58 8 -62 -2 -3
-17 -3 -32 1 -61 16 -165 0 -246 -39 -111 -54 -212 -175 -234 -280 -8 -37 -7
-200 2 -240 15 -74 70 -209 90 -222 6 -4 7 -8 3 -8 -7 0 53 -94 92 -144 9 -11
47 -51 85 -89 107 -105 258 -199 461 -287 104 -44 358 -111 480 -126 63 -8 75
-14 75 -38 0 -59 148 -116 232 -90 9 3 20 19 23 37 13 64 15 68 34 57 10 -5
20 -7 23 -5 2 2 62 7 133 10 206 9 387 34 400 55 7 12 -20 37 -64 59 -37 20
-129 48 -146 46 -5 -1 -30 -5 -55 -9 -128 -22 -147 -24 -223 -27 -56 -2 -62 0
-60 17 1 10 5 46 8 79 3 33 7 74 10 90 26 177 22 622 -9 855 -46 352 -180 596
-391 711 -22 12 -42 21 -44 20 -2 -2 -7 1 -10 6 -11 14 -99 44 -179 59 -56 11
-122 10 -181 -2z"/>
<path d="M5840 6413 c-32 -14 -49 -29 -50 -44 0 -3 15 -13 33 -21 166 -80 238
-125 276 -173 10 -14 21 -21 25 -18 3 3 6 2 6 -3 0 -5 16 -27 35 -49 30 -34
79 -105 72 -105 -1 0 -31 9 -67 21 -36 11 -72 22 -80 24 -43 10 -127 34 -140
39 -8 3 -26 7 -40 10 -14 2 -63 13 -110 25 -83 20 -220 49 -270 57 -14 3 -37
7 -52 10 -36 7 -86 15 -123 19 -16 2 -30 4 -30 5 0 2 -18 4 -140 20 -49 7
-110 14 -135 15 -25 2 -63 6 -85 9 -73 10 -278 20 -407 20 -71 1 -128 5 -128
9 0 5 -4 6 -9 2 -5 -3 -81 -7 -168 -10 -156 -5 -203 -8 -326 -21 -34 -4 -81
-7 -104 -8 -24 0 -43 -3 -43 -6 0 -4 -10 -6 -22 -6 -13 0 -54 -6 -93 -13 -38
-7 -83 -14 -100 -17 -114 -19 -387 -93 -461 -125 -24 -10 -48 -19 -52 -20 -45
-9 -223 -102 -307 -159 -65 -46 -133 -110 -189 -180 -27 -34 -68 -127 -74
-169 -21 -148 21 -283 130 -423 l28 -36 -82 -48 c-46 -26 -85 -50 -88 -53 -3
-3 -23 -19 -45 -35 -75 -56 -149 -139 -182 -206 -45 -92 -47 -103 -58 -310 -3
-63 -8 -153 -10 -200 -3 -47 -7 -121 -10 -165 -2 -44 -7 -129 -10 -190 -4 -60
-7 -111 -8 -111 -1 -1 -40 -4 -87 -8 -47 -3 -96 -8 -110 -11 -14 -3 -38 -8
-55 -11 -35 -7 -45 -9 -65 -16 -8 -3 -33 -11 -55 -18 -100 -31 -200 -90 -270
-157 -41 -39 -95 -115 -95 -133 0 -5 -4 -10 -9 -10 -8 0 -13 -16 -29 -90 -7
-32 -7 -144 1 -195 8 -60 17 -83 75 -206 57 -118 163 -228 265 -272 20 -10 53
-24 73 -33 20 -9 51 -18 68 -21 17 -3 38 -8 46 -12 16 -8 71 -14 137 -15 24
-1 43 -4 43 -8 0 -4 6 -5 14 -2 16 6 16 10 0 -456 -4 -118 -7 -272 -8 -342 -1
-71 -3 -128 -6 -128 -3 0 -6 -82 -7 -183 -2 -100 -5 -215 -7 -255 l-4 -73 55
-70 c66 -86 97 -121 189 -213 63 -63 93 -91 184 -167 58 -50 128 -99 138 -99
7 0 12 -4 12 -8 0 -16 258 -158 320 -177 14 -4 39 -13 55 -21 28 -12 177 -57
350 -105 39 -10 104 -28 145 -40 124 -35 311 -83 361 -93 13 -2 56 -11 94 -19
39 -8 88 -18 110 -21 22 -3 85 -12 140 -20 55 -8 127 -17 160 -20 33 -4 71 -8
85 -10 31 -5 152 -14 325 -24 174 -9 695 -8 820 2 127 10 160 13 160 16 0 0
22 3 49 5 61 5 119 14 222 35 82 17 108 22 124 25 8 1 22 5 30 7 26 10 164 49
190 54 13 3 30 10 37 16 7 6 13 8 13 4 0 -4 13 0 30 9 16 8 32 15 35 15 8 1
37 12 82 31 23 11 45 19 49 19 3 0 48 20 100 45 51 25 97 45 102 45 6 0 12 3
14 8 2 4 30 21 63 37 33 17 62 33 65 36 3 3 21 14 40 24 19 10 37 21 40 24 3
3 16 12 30 19 67 34 186 134 253 212 22 25 77 120 77 132 0 6 7 19 15 28 8 9
16 25 18 36 1 10 5 24 8 29 24 41 81 264 94 370 4 28 8 61 11 75 7 39 13 157
19 370 3 107 8 260 11 340 2 80 6 201 9 270 2 69 4 143 4 165 l1 40 137 0
c168 0 228 8 331 41 108 35 196 95 253 175 72 98 95 178 93 324 0 66 -5 90
-28 138 -16 32 -44 75 -65 95 -39 41 -104 82 -127 82 -8 0 -14 5 -14 12 0 6
-3 9 -6 5 -3 -3 -23 1 -44 8 -21 7 -51 16 -67 18 -15 3 -39 8 -53 11 -26 6
-63 13 -115 22 -16 3 -48 9 -70 14 -21 5 -74 8 -116 7 l-77 -2 5 125 c2 69 6
158 7 198 l2 73 109 38 c101 34 241 101 281 133 99 78 168 170 199 262 20 63
22 211 2 243 -3 5 -8 21 -11 35 -2 14 -14 45 -25 68 -12 24 -21 48 -21 52 0 9
-83 139 -110 172 -120 148 -295 309 -480 441 -30 22 -56 43 -58 47 -2 5 -8 8
-14 8 -6 0 -25 11 -42 23 -42 32 -234 147 -246 147 -4 0 -10 3 -12 8 -1 4 -23
18 -48 31 -89 46 -256 129 -300 149 -75 33 -254 109 -271 115 -9 3 -30 32 -45
64 -16 32 -32 60 -35 63 -3 3 -20 27 -39 54 -62 92 -216 234 -310 285 -162 89
-248 108 -330 74z m-1020 -387 c163 -13 252 -22 385 -41 17 -2 53 -7 80 -11
28 -3 59 -8 70 -10 11 -3 35 -7 54 -10 46 -6 53 -14 13 -14 -77 0 -190 -43
-263 -101 l-36 -28 -104 19 c-118 21 -305 50 -364 55 -22 3 -67 8 -100 12 -33
3 -81 7 -107 7 -27 1 -48 3 -48 6 0 3 -32 5 -71 5 -39 0 -72 2 -74 5 -4 7
-287 4 -400 -4 -134 -9 -275 -25 -286 -32 -3 -2 -19 -6 -35 -8 -30 -6 -61 -13
-91 -20 -32 -8 -137 -48 -158 -59 -11 -6 -22 -12 -25 -12 -11 -1 -67 -41 -94
-67 -17 -15 -33 -28 -38 -28 -4 0 -8 -7 -8 -15 0 -8 -4 -15 -9 -15 -20 0 -49
-104 -46 -165 3 -60 40 -161 71 -196 13 -15 3 -20 -123 -61 l-138 -46 -32 31
c-18 17 -33 35 -33 39 0 5 -8 18 -19 29 -21 22 -54 88 -69 134 -19 62 8 143
66 203 28 28 119 96 160 120 68 38 162 83 162 77 0 -3 14 2 31 10 42 22 174
65 207 67 6 1 12 5 12 10 0 5 4 7 9 4 5 -3 27 1 50 9 23 8 41 12 41 9 0 -3 6
-2 13 3 6 4 23 9 37 10 14 2 31 4 38 5 6 1 12 5 12 10 0 5 4 7 9 3 5 -3 29 -1
53 4 24 6 66 13 93 16 28 4 61 8 75 11 14 2 45 7 70 9 25 3 60 7 77 10 18 3
79 7 135 10 56 4 104 7 105 9 5 4 578 -2 643 -8z m965 -150 c11 -3 20 -5 20
-6 0 -1 11 -4 25 -6 105 -19 513 -149 530 -169 15 -19 27 -235 12 -235 -6 0
-23 5 -39 11 -36 14 -302 108 -308 109 -5 1 -4 0 -82 25 -48 15 -54 20 -80 73
-33 70 -140 178 -205 210 -27 13 -48 25 -48 26 0 2 35 -5 78 -16 42 -10 86
-20 97 -22z m-266 -66 c21 -11 45 -45 55 -78 7 -21 5 -22 -21 -17 -15 3 -32 7
-38 9 -5 1 -36 8 -68 16 l-57 13 22 25 c36 38 74 50 107 32z m1297 -295 c75
-36 140 -65 144 -65 4 0 13 -7 20 -15 7 -9 15 -13 18 -11 3 3 17 -3 32 -14 16
-11 30 -20 33 -20 13 0 283 -163 314 -190 7 -5 15 -10 18 -10 3 0 11 -5 18
-10 7 -6 44 -34 82 -62 302 -222 513 -488 517 -650 1 -92 -55 -165 -184 -236
-60 -33 -62 -31 -24 23 16 23 21 48 23 108 1 44 -2 86 -6 95 -39 84 -76 152
-83 152 -4 0 -8 5 -8 10 0 24 -179 203 -260 260 -19 13 -39 28 -45 33 -56 45
-206 141 -340 217 -53 30 -294 150 -373 186 l-64 28 7 66 c4 36 7 89 6 118 -1
30 2 52 8 52 6 0 72 -29 147 -65z m-3460 -457 c40 -31 53 -41 67 -53 7 -6 28
-22 47 -35 19 -13 37 -27 40 -31 9 -12 243 -155 325 -199 86 -46 237 -123 245
-125 3 -1 25 -11 50 -23 76 -36 154 -70 211 -92 85 -34 94 -38 102 -39 4 0 20
-7 35 -15 23 -12 360 -134 387 -140 6 -2 30 -9 55 -16 25 -8 48 -14 52 -14 3
-1 10 -4 14 -8 3 -4 -3 -5 -15 -3 -50 11 -60 14 -94 23 -20 6 -38 7 -41 4 -3
-3 -6 1 -6 8 0 7 -3 11 -6 8 -5 -5 -99 15 -134 29 -8 3 -22 7 -30 8 -15 2
-142 38 -190 54 -14 5 -45 15 -70 22 -25 7 -51 17 -57 22 -7 5 -13 7 -13 3 0
-3 -33 6 -72 20 -40 14 -111 39 -158 55 -47 17 -94 34 -105 39 -11 4 -51 20
-90 35 -38 15 -83 33 -100 40 -16 7 -68 30 -115 50 -176 77 -400 195 -542 288
-46 29 -59 46 -38 48 19 3 25 4 65 16 58 18 139 41 146 42 4 1 19 -9 35 -21z
m-494 -171 c14 -12 36 -30 47 -39 12 -10 25 -18 30 -18 5 0 11 -4 13 -8 4 -11
113 -82 126 -82 6 0 12 -4 14 -8 4 -10 125 -82 138 -82 4 0 10 -4 12 -8 3 -8
349 -182 372 -187 10 -2 37 -13 121 -50 84 -37 401 -154 430 -159 6 -1 15 -4
20 -8 19 -11 381 -119 515 -153 66 -17 174 -44 201 -50 11 -2 28 -6 37 -9 9
-3 29 -7 45 -10 15 -3 35 -7 45 -10 9 -3 28 -7 42 -10 14 -3 59 -12 100 -21
113 -23 113 -23 145 -29 27 -4 119 -22 130 -25 3 0 17 -1 32 -1 14 0 24 -3 20
-6 -31 -31 -1064 -39 -1257 -9 -14 2 -65 6 -113 10 -48 3 -96 8 -106 10 -10 2
-42 6 -72 9 -83 9 -132 16 -159 21 -14 3 -43 7 -65 11 -22 3 -76 12 -120 20
-44 9 -93 18 -110 21 -16 2 -91 20 -165 39 -74 19 -142 36 -151 38 -149 36
-408 143 -527 219 -238 149 -277 274 -132 417 49 49 166 130 187 130 6 0 13 3
15 8 3 8 88 50 103 51 6 1 22 -9 37 -22z m4503 -1079 c-1 -13 -4 -29 -8 -35
-4 -7 -3 -14 3 -18 6 -4 7 -11 4 -17 -3 -5 -8 -71 -10 -146 -3 -149 -10 -380
-19 -622 -8 -226 -16 -457 -20 -600 -2 -69 -6 -201 -9 -295 -4 -93 -9 -240
-12 -325 -10 -302 -13 -350 -30 -440 -3 -14 -7 -36 -9 -50 -6 -30 -13 -63 -15
-70 -1 -3 -2 -8 -1 -12 0 -4 -6 -26 -15 -50 -9 -24 -17 -53 -20 -65 -5 -28
-59 -148 -76 -169 -43 -54 -103 -107 -179 -157 -47 -31 -89 -57 -94 -57 -5 0
-16 -6 -24 -14 -20 -18 -269 -143 -321 -161 -30 -11 -49 -19 -72 -31 -16 -8
-28 -13 -28 -9 0 3 -19 -4 -42 -16 -24 -12 -45 -21 -48 -21 -3 1 -23 -4 -45
-10 -51 -15 -47 -14 -65 -21 -8 -4 -26 -9 -40 -11 -14 -3 -45 -11 -70 -17 -25
-6 -54 -13 -65 -14 -11 -2 -40 -8 -65 -13 -25 -6 -69 -13 -99 -17 -30 -4 -63
-9 -75 -11 -19 -3 -74 -9 -191 -20 -27 -2 -109 -6 -182 -8 -72 -2 -136 -7
-142 -11 -6 -3 -11 -2 -11 2 0 7 -44 9 -60 3 -3 -1 -9 -1 -15 0 -5 1 -89 3
-185 5 -162 3 -252 8 -405 21 -204 16 -362 36 -485 59 -19 3 -48 8 -65 10 -16
2 -30 4 -30 5 0 2 -34 10 -65 15 -72 11 -503 126 -497 132 2 1 28 -1 58 -7 30
-5 74 -12 99 -15 119 -14 137 -17 170 -20 19 -2 59 -7 89 -10 111 -13 408 -27
598 -29 90 0 163 -5 163 -9 0 -5 4 -6 9 -3 5 4 94 8 198 11 103 3 208 7 233 9
25 3 83 7 130 11 47 4 96 8 110 10 161 20 190 24 365 56 145 27 133 24 286 63
155 40 347 103 463 152 44 19 86 34 93 34 7 0 13 5 13 10 0 6 5 10 11 10 19 0
205 96 265 138 81 55 155 130 222 225 31 45 56 83 55 84 -1 1 11 28 28 60 l30
57 -6 310 c-3 171 -8 401 -10 511 -12 562 -16 718 -20 915 -12 559 -13 710 -5
715 5 3 39 8 74 11 36 3 84 8 108 13 52 9 74 0 73 -31z m-5224 -210 c1 -13 1
-25 1 -28 0 -3 -3 -91 -7 -195 -3 -104 -8 -253 -11 -330 -2 -77 -6 -176 -7
-220 -2 -92 -7 -96 -87 -61 -273 117 -398 452 -257 688 61 102 169 162 300
167 64 2 67 1 68 -21z m5569 -251 c31 -5 76 -14 105 -21 110 -26 181 -85 202
-169 11 -43 9 -143 -3 -184 -7 -24 -10 -43 -8 -43 11 0 -54 -101 -88 -137 -68
-70 -117 -83 -276 -75 l-33 2 5 188 c2 103 5 187 6 187 1 0 2 56 3 125 3 135
8 155 35 141 9 -4 33 -11 52 -14z"/>
</g>
</svg>
